{"accessors" : [{"bufferView" : 0, "byteOffset" : 0, "componentType" : 5123, "count" : 1284, "type" : "SCALAR", "max" : [665], "min" : [0]}, {"bufferView" : 1, "byteOffset" : 0, "componentType" : 5126, "count" : 666, "type" : "VEC3", "max" : [0.05835900083184242, 1.4820810556411743, 0.059755001217126846], "min" : [-0.05835900083184242, 1.3788540363311768, -0.03313399851322174], "name" : "POSITION"}, {"bufferView" : 1, "byteOffset" : 12, "componentType" : 5126, "count" : 666, "type" : "VEC2", "max" : [1.9887700080871582, 0.9770510196685791], "min" : [0.39257800579071045, 0.004395008087158203], "name" : "TEXCOORD_0"}, {"bufferView" : 1, "byteOffset" : 20, "componentType" : 5126, "count" : 666, "type" : "VEC3", "max" : [0.994958221912384, 0.9997512102127075, 0.9912250638008118], "min" : [-0.994958221912384, -0.9995972514152527, -0.999829113483429], "name" : "NORMAL"}, {"bufferView" : 0, "byteOffset" : 2568, "componentType" : 5123, "count" : 2550, "type" : "SCALAR", "max" : [1169], "min" : [0]}, {"bufferView" : 2, "byteOffset" : 0, "componentType" : 5126, "count" : 1170, "type" : "VEC3", "max" : [0.10467399656772614, 1.5388380289077759, 0.08761599659919739], "min" : [-0.10467399656772614, 1.3540420532226562, -0.07086800038814545], "name" : "POSITION"}, {"bufferView" : 2, "byteOffset" : 12, "componentType" : 5126, "count" : 1170, "type" : "VEC2", "max" : [1.996093988418579, 0.9892579913139343], "min" : [1.0014649629592896, 0.011718988418579102], "name" : "TEXCOORD_0"}, {"bufferView" : 2, "byteOffset" : 20, "componentType" : 5126, "count" : 1170, "type" : "VEC3", "max" : [0.9956493973731995, 0.9996591210365295, 0.9995655417442322], "min" : [-0.9956493973731995, -0.999771237373352, -0.7593905925750732], "name" : "NORMAL"}, {"bufferView" : 0, "byteOffset" : 7668, "componentType" : 5123, "count" : 2262, "type" : "SCALAR", "max" : [1265], "min" : [0]}, {"bufferView" : 3, "byteOffset" : 0, "componentType" : 5126, "count" : 1266, "type" : "VEC3", "max" : [0.803380012512207, 1.693755030632019, 0.15264399349689484], "min" : [-0.803384006023407, 0.22237299382686615, -0.2397419959306717], "name" : "POSITION"}, {"bufferView" : 3, "byteOffset" : 12, "componentType" : 5126, "count" : 1266, "type" : "VEC2", "max" : [3.997559070587158, 0.9995120167732239], "min" : [3.000977039337158, 0.0014650225639343262], "name" : "TEXCOORD_0"}, {"bufferView" : 3, "byteOffset" : 20, "componentType" : 5126, "count" : 1266, "type" : "VEC3", "max" : [0.9999227523803711, 0.9990864992141724, 1.0000044107437134], "min" : [-0.9997612237930298, -1.0000044107437134, -0.999907374382019], "name" : "NORMAL"}, {"bufferView" : 0, "byteOffset" : 12192, "componentType" : 5123, "count" : 2868, "type" : "SCALAR", "max" : [1621], "min" : [0]}, {"bufferView" : 4, "byteOffset" : 0, "componentType" : 5126, "count" : 1622, "type" : "VEC3", "max" : [0.6944670081138611, 1.368101954460144, 0.3099389970302582], "min" : [-0.6944699883460999, -1.9999999949504854E-06, -0.31681299209594727], "name" : "POSITION"}, {"bufferView" : 4, "byteOffset" : 12, "componentType" : 5126, "count" : 1622, "type" : "VEC2", "max" : [0.9985349774360657, 1], "min" : [0.0009769999887794256, 0.002929985523223877], "name" : "TEXCOORD_0"}, {"bufferView" : 4, "byteOffset" : 20, "componentType" : 5126, "count" : 1622, "type" : "VEC3", "max" : [1.0000044107437134, 0.998173713684082, 0.9999287724494934], "min" : [-1.0000044107437134, -1.0000044107437134, -0.9999254941940308], "name" : "NORMAL"}, {"bufferView" : 0, "byteOffset" : 17928, "componentType" : 5123, "count" : 84, "type" : "SCALAR", "max" : [73], "min" : [0]}, {"bufferView" : 5, "byteOffset" : 0, "componentType" : 5126, "count" : 74, "type" : "VEC3", "max" : [0.10079699754714966, 1.2922199964523315, 0.11035999655723572], "min" : [-0.10079699754714966, 1.0071970224380493, 0.008684000000357628], "name" : "POSITION"}, {"bufferView" : 5, "byteOffset" : 12, "componentType" : 5126, "count" : 74, "type" : "VEC2", "max" : [1.9667969942092896, 0.8515620231628418], "min" : [1.0043950080871582, 0.03759801387786865], "name" : "TEXCOORD_0"}, {"bufferView" : 5, "byteOffset" : 20, "componentType" : 5126, "count" : 74, "type" : "VEC3", "max" : [0.5242921710014343, 0.5375937819480896, 0.9605906009674072], "min" : [-0.5242921710014343, -0.5022213459014893, -0.9605906009674072], "name" : "NORMAL"}, {"bufferView" : 0, "byteOffset" : 18096, "componentType" : 5123, "count" : 348, "type" : "SCALAR", "max" : [169], "min" : [0]}, {"bufferView" : 6, "byteOffset" : 0, "componentType" : 5126, "count" : 170, "type" : "VEC3", "max" : [0.06378699839115143, 1.4746370315551758, 0.06564799696207047], "min" : [-0.06378699839115143, 1.4562350511550903, 0.04502300173044205], "name" : "POSITION"}, {"bufferView" : 6, "byteOffset" : 12, "componentType" : 5126, "count" : 170, "type" : "VEC2", "max" : [0.9799799919128418, 0.9702150225639343], "min" : [0.03320299834012985, 0.028320014476776123], "name" : "TEXCOORD_0"}, {"bufferView" : 6, "byteOffset" : 20, "componentType" : 5126, "count" : 170, "type" : "VEC3", "max" : [0.975837767124176, 0.9942837953567505, 0.5098121762275696], "min" : [-0.975837767124176, -0.9942837953567505, -0.5098121762275696], "name" : "NORMAL"}], "asset" : {"generator" : "Aspose.3D 24.6.0", "version" : "2.0"}, "buffers" : [{"uri" : "data:application/octet-stream;base64,", "byteLength" : 177796}], "bufferViews" : [{"buffer" : 0, "byteOffset" : 0, "byteLength" : 18792, "target" : 34963}, {"buffer" : 0, "byteOffset" : 18796, "byteLength" : 21312, "byteStride" : 32, "target" : 34962}, {"buffer" : 0, "byteOffset" : 40112, "byteLength" : 37440, "byteStride" : 32, "target" : 34962}, {"buffer" : 0, "byteOffset" : 77556, "byteLength" : 40512, "byteStride" : 32, "target" : 34962}, {"buffer" : 0, "byteOffset" : 118072, "byteLength" : 51904, "byteStride" : 32, "target" : 34962}, {"buffer" : 0, "byteOffset" : 169980, "byteLength" : 2368, "byteStride" : 32, "target" : 34962}, {"buffer" : 0, "byteOffset" : 172352, "byteLength" : 5440, "byteStride" : 32, "target" : 34962}], "images" : [{"uri" : "h_ex050_05.png"}, {"uri" : "h_ex050_00.png"}, {"uri" : "h_ex050_01.png"}, {"uri" : "h_ex050_02.png"}, {"uri" : "h_ex050_03.png"}, {"uri" : "h_ex050_04.png"}], "materials" : [{"name" : "h_ex050_05", "pbrMetallicRoughness" : {"baseColorFactor" : [1, 1, 1, 1], "baseColorTexture" : {"index" : 0, "texCoord" : 0}, "metallicFactor" : 1, "roughnessFactor" : 1}, "emissiveFactor" : [0, 0, 0], "alphaMode" : "OPAQUE", "doubleSided" : false}, {"name" : "h_ex050_00", "pbrMetallicRoughness" : {"baseColorFactor" : [1, 1, 1, 1], "baseColorTexture" : {"index" : 1, "texCoord" : 0}, "metallicFactor" : 1, "roughnessFactor" : 1}, "emissiveFactor" : [0, 0, 0], "alphaMode" : "OPAQUE", "doubleSided" : false}, {"name" : "h_ex050_01", "pbrMetallicRoughness" : {"baseColorFactor" : [1, 1, 1, 1], "baseColorTexture" : {"index" : 2, "texCoord" : 0}, "metallicFactor" : 1, "roughnessFactor" : 1}, "emissiveFactor" : [0, 0, 0], "alphaMode" : "OPAQUE", "doubleSided" : false}, {"name" : "h_ex050_02", "pbrMetallicRoughness" : {"baseColorFactor" : [1, 1, 1, 1], "baseColorTexture" : {"index" : 3, "texCoord" : 0}, "metallicFactor" : 1, "roughnessFactor" : 1}, "emissiveFactor" : [0, 0, 0], "alphaMode" : "OPAQUE", "doubleSided" : false}, {"name" : "h_ex050_03", "pbrMetallicRoughness" : {"baseColorFactor" : [1, 1, 1, 1], "baseColorTexture" : {"index" : 4, "texCoord" : 0}, "metallicFactor" : 1, "roughnessFactor" : 1}, "emissiveFactor" : [0, 0, 0], "alphaMode" : "OPAQUE", "doubleSided" : false}, {"name" : "h_ex050_04", "pbrMetallicRoughness" : {"baseColorFactor" : [1, 1, 1, 1], "baseColorTexture" : {"index" : 5, "texCoord" : 0}, "metallicFactor" : 1, "roughnessFactor" : 1}, "emissiveFactor" : [0, 0, 0], "alphaMode" : "OPAQUE", "doubleSided" : false}], "meshes" : [{"primitives" : [{"attributes" : {"POSITION" : 1, "TEXCOORD_0" : 2, "NORMAL" : 3}, "indices" : 0, "material" : 0, "mode" : 4}], "name" : ""}, {"primitives" : [{"attributes" : {"POSITION" : 5, "TEXCOORD_0" : 6, "NORMAL" : 7}, "indices" : 4, "material" : 1, "mode" : 4}], "name" : ""}, {"primitives" : [{"attributes" : {"POSITION" : 9, "TEXCOORD_0" : 10, "NORMAL" : 11}, "indices" : 8, "material" : 2, "mode" : 4}], "name" : ""}, {"primitives" : [{"attributes" : {"POSITION" : 13, "TEXCOORD_0" : 14, "NORMAL" : 15}, "indices" : 12, "material" : 3, "mode" : 4}], "name" : ""}, {"primitives" : [{"attributes" : {"POSITION" : 17, "TEXCOORD_0" : 18, "NORMAL" : 19}, "indices" : 16, "material" : 4, "mode" : 4}], "name" : ""}, {"primitives" : [{"attributes" : {"POSITION" : 21, "TEXCOORD_0" : 22, "NORMAL" : 23}, "indices" : 20, "material" : 5, "mode" : 4}], "name" : ""}], "nodes" : [{"mesh" : 0, "name" : "h_ex050_05_h_ex050_05_mesh0003"}, {"mesh" : 1, "name" : "h_ex050_00_h_ex050_00_mesh0000"}, {"mesh" : 2, "name" : "h_ex050_01_h_ex050_01_mesh0001"}, {"mesh" : 3, "name" : "h_ex050_02_h_ex050_02_mesh0002"}, {"mesh" : 4, "name" : "h_ex050_03_h_ex050_03_mesh0004"}, {"mesh" : 5, "name" : "h_ex050_04_h_ex050_04_mesh0005"}], "samplers" : [{"magFilter" : 9729, "minFilter" : 9729, "wrapS" : 10497, "wrapT" : 10497}, {"magFilter" : 9729, "minFilter" : 9729, "wrapS" : 10497, "wrapT" : 10497}, {"magFilter" : 9729, "minFilter" : 9729, "wrapS" : 10497, "wrapT" : 10497}, {"magFilter" : 9729, "minFilter" : 9729, "wrapS" : 10497, "wrapT" : 10497}, {"magFilter" : 9729, "minFilter" : 9729, "wrapS" : 10497, "wrapT" : 10497}, {"magFilter" : 9729, "minFilter" : 9729, "wrapS" : 10497, "wrapT" : 10497}], "scene" : 0, "scenes" : [{"nodes" : [0, 1, 2, 3, 4, 5]}], "textures" : [{"sampler" : 0, "source" : 0, "name" : ""}, {"sampler" : 1, "source" : 1, "name" : ""}, {"sampler" : 2, "source" : 2, "name" : ""}, {"sampler" : 3, "source" : 3, "name" : ""}, {"sampler" : 4, "source" : 4, "name" : ""}, {"sampler" : 5, "source" : 5, "name" : ""}]}