{"accessors" : [{"bufferView" : 0, "byteOffset" : 0, "componentType" : 5123, "count" : 208353, "type" : "SCALAR", "max" : [34833], "min" : [0]}, {"bufferView" : 1, "byteOffset" : 0, "componentType" : 5126, "count" : 34834, "type" : "VEC3", "max" : [0.0610090009868145, 0.1873210072517395, 0.058800000697374344], "min" : [-0.0946900025010109, 0.032986998558044434, -0.06187399849295616], "name" : "POSITION"}], "asset" : {"generator" : "Aspose.3D 24.6.0", "version" : "2.0"}, "buffers" : [{"uri" : "data:application/octet-stream;base64,", "byteLength" : 834724}], "bufferViews" : [{"buffer" : 0, "byteOffset" : 0, "byteLength" : 416708, "target" : 34963}, {"buffer" : 0, "byteOffset" : 416712, "byteLength" : 418008, "byteStride" : 12, "target" : 34962}], "meshes" : [{"primitives" : [{"attributes" : {"POSITION" : 1}, "indices" : 0, "mode" : 4}], "name" : ""}], "nodes" : [{"mesh" : 0, "name" : ""}], "scene" : 0, "scenes" : [{"nodes" : [0]}]}